<svg width="170" height="29" viewBox="0 0 170 29" fill="none" xmlns="http://www.w3.org/2000/svg">
<path d="M164.898 28.9H0.769836L5.73761 0.732025H169.865L164.898 28.9Z" fill="white"/>
<path d="M151.211 15.2097H161.817V25.816H151.211V15.2097Z" fill="#FFF200"/>
<path d="M14.3134 19.24H19.5694L18.9214 22.816H8.93738L11.9374 5.89601H16.6414L14.3134 19.24Z" fill="black"/>
<path d="M29.2224 9.18401C30.9824 9.18401 32.3744 9.65601 33.3984 10.6C34.4384 11.544 34.9584 12.832 34.9584 14.464C34.9584 15.008 34.9184 15.488 34.8384 15.904C34.7424 16.416 34.6464 16.784 34.5504 17.008H25.6464C25.6304 17.104 25.6224 17.248 25.6224 17.44C25.6224 18.048 25.7664 18.496 26.0544 18.784C26.3584 19.072 26.7584 19.216 27.2544 19.216C28.0384 19.216 28.6624 18.864 29.1264 18.16H34.1184C33.7504 19.088 33.1984 19.92 32.4624 20.656C31.7424 21.376 30.8864 21.944 29.8944 22.36C28.9184 22.776 27.8784 22.984 26.7744 22.984C25.0144 22.984 23.6144 22.504 22.5744 21.544C21.5344 20.584 21.0144 19.264 21.0144 17.584C21.0144 17.104 21.0624 16.6 21.1584 16.072C21.4144 14.664 21.9184 13.448 22.6704 12.424C23.4384 11.384 24.3824 10.584 25.5024 10.024C26.6384 9.46401 27.8784 9.18401 29.2224 9.18401ZM30.2064 14.896C30.2384 14.672 30.2544 14.528 30.2544 14.464C30.2544 13.952 30.0944 13.568 29.7744 13.312C29.4544 13.04 29.0384 12.904 28.5264 12.904C27.9344 12.904 27.4224 13.072 26.9904 13.408C26.5584 13.744 26.2384 14.24 26.0304 14.896H30.2064Z" fill="black"/>
<path d="M51.4035 10.288C51.2275 11.28 50.8115 12.112 50.1555 12.784C49.5155 13.44 48.7475 13.888 47.8515 14.128C48.6675 14.32 49.2995 14.712 49.7475 15.304C50.2115 15.896 50.4435 16.6 50.4435 17.416C50.4435 17.672 50.4195 17.936 50.3715 18.208C50.1315 19.648 49.4435 20.776 48.3075 21.592C47.1715 22.408 45.6995 22.816 43.8915 22.816H35.5155L38.5155 5.89601H46.6275C48.1635 5.89601 49.3555 6.20801 50.2035 6.83201C51.0515 7.44001 51.4755 8.31201 51.4755 9.44801C51.4755 9.72001 51.4515 10 51.4035 10.288ZM46.4355 11.152C46.4515 11.072 46.4595 10.952 46.4595 10.792C46.4595 10.024 45.9555 9.64001 44.9475 9.64001H42.5715L42.0435 12.64H44.4195C45.5875 12.64 46.2595 12.144 46.4355 11.152ZM45.6915 17.536C45.7075 17.456 45.7155 17.344 45.7155 17.2C45.7155 16.8 45.5795 16.496 45.3075 16.288C45.0515 16.064 44.6675 15.952 44.1555 15.952H41.4435L40.9155 19.048H43.6515C44.8195 19.048 45.4995 18.544 45.6915 17.536Z" fill="black"/>
<path d="M57.8811 22.984C56.7131 22.984 55.6731 22.752 54.7611 22.288C53.8651 21.824 53.1691 21.168 52.6731 20.32C52.1771 19.472 51.9291 18.48 51.9291 17.344C51.9291 15.808 52.2891 14.416 53.0091 13.168C53.7451 11.92 54.7531 10.944 56.0331 10.24C57.3131 9.53601 58.7451 9.18401 60.3291 9.18401C61.4971 9.18401 62.5291 9.41601 63.4251 9.88001C64.3371 10.344 65.0411 11.008 65.5371 11.872C66.0491 12.72 66.3051 13.712 66.3051 14.848C66.3051 16.4 65.9371 17.8 65.2011 19.048C64.4651 20.28 63.4571 21.248 62.1771 21.952C60.8971 22.64 59.4651 22.984 57.8811 22.984ZM58.6011 18.928C59.1611 18.928 59.6571 18.752 60.0891 18.4C60.5371 18.048 60.8731 17.592 61.0971 17.032C61.3371 16.472 61.4571 15.896 61.4571 15.304C61.4571 14.632 61.2811 14.12 60.9291 13.768C60.5931 13.416 60.1531 13.24 59.6091 13.24C59.0331 13.24 58.5291 13.416 58.0971 13.768C57.6811 14.12 57.3531 14.576 57.1131 15.136C56.8891 15.696 56.7771 16.28 56.7771 16.888C56.7771 17.56 56.9451 18.072 57.2811 18.424C57.6171 18.76 58.0571 18.928 58.6011 18.928Z" fill="black"/>
<path d="M78.1069 9.23201C79.4189 9.23201 80.4429 9.61601 81.1789 10.384C81.9309 11.136 82.3069 12.184 82.3069 13.528C82.3069 13.976 82.2589 14.456 82.1629 14.968L80.7709 22.816H76.0669L77.3389 15.592C77.3869 15.352 77.4109 15.136 77.4109 14.944C77.4109 14.368 77.2429 13.92 76.9069 13.6C76.5869 13.28 76.1309 13.12 75.5389 13.12C74.8669 13.12 74.2989 13.328 73.8349 13.744C73.3709 14.16 73.0589 14.736 72.8989 15.472L71.6029 22.816H66.8749L69.2749 9.35201H73.9789L73.6429 11.272C74.1709 10.664 74.8189 10.176 75.5869 9.80801C76.3549 9.42401 77.1949 9.23201 78.1069 9.23201Z" fill="black"/>
<path d="M106.08 5.89601L103.08 22.816H98.4L100.056 13.456L95.184 22.816H91.248L89.712 13.408L88.056 22.816H83.328L86.328 5.89601H92.016L94.344 16.864L100.416 5.89601H106.08Z" fill="black"/>
<path d="M106.19 16.072C106.446 14.68 106.918 13.464 107.606 12.424C108.294 11.384 109.118 10.584 110.078 10.024C111.054 9.46401 112.078 9.18401 113.15 9.18401C114.078 9.18401 114.846 9.36801 115.454 9.73601C116.062 10.104 116.486 10.6 116.726 11.224L117.062 9.35201H121.766L119.39 22.816H114.686L115.022 20.944C114.558 21.568 113.95 22.064 113.198 22.432C112.446 22.8 111.614 22.984 110.702 22.984C109.294 22.984 108.166 22.52 107.318 21.592C106.47 20.648 106.046 19.368 106.046 17.752C106.046 17.224 106.094 16.664 106.19 16.072ZM115.886 16.072C115.934 15.832 115.958 15.608 115.958 15.4C115.958 14.728 115.766 14.208 115.382 13.84C115.014 13.472 114.534 13.288 113.942 13.288C113.238 13.288 112.606 13.536 112.046 14.032C111.486 14.512 111.134 15.192 110.99 16.072C110.942 16.312 110.918 16.544 110.918 16.768C110.918 17.44 111.102 17.96 111.47 18.328C111.854 18.696 112.342 18.88 112.934 18.88C113.638 18.88 114.27 18.632 114.83 18.136C115.39 17.64 115.742 16.952 115.886 16.072Z" fill="black"/>
<path d="M128.43 17.776C128.414 17.856 128.406 17.952 128.406 18.064C128.406 18.32 128.478 18.512 128.622 18.64C128.782 18.752 129.038 18.808 129.39 18.808H130.758L130.038 22.816H127.974C125.046 22.816 123.582 21.584 123.582 19.12C123.582 18.704 123.63 18.232 123.726 17.704L124.518 13.264H122.862L123.558 9.35201H125.214L125.79 6.08801H130.518L129.942 9.35201H132.366L131.67 13.264H129.246L128.43 17.776Z" fill="black"/>
<path d="M138.436 22.984C137.268 22.984 136.228 22.752 135.316 22.288C134.42 21.824 133.724 21.168 133.228 20.32C132.732 19.472 132.484 18.48 132.484 17.344C132.484 15.808 132.844 14.416 133.564 13.168C134.3 11.92 135.308 10.944 136.588 10.24C137.868 9.53601 139.3 9.18401 140.884 9.18401C142.052 9.18401 143.084 9.41601 143.98 9.88001C144.892 10.344 145.596 11.008 146.092 11.872C146.604 12.72 146.86 13.712 146.86 14.848C146.86 16.4 146.492 17.8 145.756 19.048C145.02 20.28 144.012 21.248 142.732 21.952C141.452 22.64 140.02 22.984 138.436 22.984ZM139.156 18.928C139.716 18.928 140.212 18.752 140.644 18.4C141.092 18.048 141.428 17.592 141.652 17.032C141.892 16.472 142.012 15.896 142.012 15.304C142.012 14.632 141.836 14.12 141.484 13.768C141.148 13.416 140.708 13.24 140.164 13.24C139.588 13.24 139.084 13.416 138.652 13.768C138.236 14.12 137.908 14.576 137.668 15.136C137.444 15.696 137.332 16.28 137.332 16.888C137.332 17.56 137.5 18.072 137.836 18.424C138.172 18.76 138.612 18.928 139.156 18.928Z" fill="black"/>
<path d="M153.31 22.984C152.19 22.984 151.19 22.816 150.31 22.48C149.43 22.144 148.742 21.672 148.246 21.064C147.75 20.44 147.502 19.728 147.502 18.928C147.502 18.784 147.518 18.568 147.55 18.28H152.086C152.07 18.728 152.206 19.072 152.494 19.312C152.782 19.552 153.182 19.672 153.694 19.672C154.094 19.672 154.422 19.592 154.678 19.432C154.95 19.272 155.086 19.064 155.086 18.808C155.086 18.504 154.918 18.272 154.582 18.112C154.246 17.936 153.686 17.72 152.902 17.464C151.99 17.176 151.238 16.896 150.646 16.624C150.054 16.352 149.534 15.952 149.086 15.424C148.654 14.896 148.438 14.216 148.438 13.384C148.438 12.584 148.67 11.864 149.134 11.224C149.614 10.584 150.286 10.088 151.15 9.73601C152.014 9.36801 153.014 9.18401 154.15 9.18401C155.366 9.18401 156.414 9.39201 157.294 9.80801C158.19 10.208 158.854 10.768 159.286 11.488C159.734 12.208 159.934 13.008 159.886 13.888H155.662C155.678 13.456 155.55 13.12 155.278 12.88C155.006 12.624 154.614 12.496 154.102 12.496C153.734 12.496 153.43 12.576 153.19 12.736C152.95 12.896 152.83 13.104 152.83 13.36C152.83 13.664 152.998 13.904 153.334 14.08C153.686 14.256 154.27 14.48 155.086 14.752C155.982 15.04 156.726 15.328 157.318 15.616C157.926 15.888 158.446 16.28 158.878 16.792C159.31 17.288 159.526 17.928 159.526 18.712C159.526 20.04 158.95 21.088 157.798 21.856C156.646 22.608 155.15 22.984 153.31 22.984Z" fill="black"/>
</svg>
