<svg width="132" height="55" viewBox="0 0 132 55" fill="none" xmlns="http://www.w3.org/2000/svg">
<path d="M122.331 54.895H0.768311L10.4312 0.10498H131.992L122.331 54.895Z" fill="black"/>
<path d="M94.9922 27.5H115.623V48.1306H94.9922V27.5Z" fill="#FFF200"/>
<path d="M27.1121 36.1052H37.3357L36.0752 43.061H16.6552L22.4905 10.1495H31.6404L27.1121 36.1052Z" fill="white"/>
<path d="M70.4903 18.6925C70.148 20.6221 69.3388 22.2404 68.0628 23.5475C66.818 24.8235 65.3241 25.6949 63.5813 26.1618C65.1685 26.5352 66.3978 27.2977 67.2692 28.4492C68.1717 29.6007 68.623 30.9701 68.623 32.5573C68.623 33.0553 68.5763 33.5688 68.483 34.0978C68.0161 36.8988 66.6779 39.0929 64.4682 40.6801C62.2586 42.2673 59.3954 43.061 55.8786 43.061H39.5863L45.4216 10.1495H61.2004C64.1881 10.1495 66.5067 10.7564 68.1562 11.9702C69.8056 13.1528 70.6304 14.8489 70.6304 17.0586C70.6304 17.5877 70.5837 18.1323 70.4903 18.6925ZM60.827 20.3731C60.8581 20.2175 60.8737 19.9841 60.8737 19.6728C60.8737 18.179 59.8933 17.4321 57.9326 17.4321H53.311L52.284 23.2674H56.9056C59.1775 23.2674 60.4846 22.3026 60.827 20.3731ZM59.3798 32.7907C59.4109 32.6351 59.4265 32.4173 59.4265 32.1372C59.4265 31.3591 59.162 30.7678 58.6329 30.3632C58.1349 29.9275 57.388 29.7097 56.3921 29.7097H51.1169L50.0899 35.7317H55.4118C57.6837 35.7317 59.0064 34.7514 59.3798 32.7907Z" fill="white"/>
<path d="M115.161 10.1495L109.326 43.061H100.223L103.444 24.8546L93.9671 43.061H86.3111L83.3234 24.7613L80.1023 43.061H70.9057L76.7411 10.1495H87.8049L92.3332 31.4836L104.144 10.1495H115.161Z" fill="white"/>
</svg>
