<svg width="132" height="55" viewBox="0 0 132 55" fill="none" xmlns="http://www.w3.org/2000/svg">
<path d="M121.974 54.895H0.411377L10.0743 0.10498H131.635L121.974 54.895Z" fill="white"/>
<path d="M94.6353 27.5H115.266V48.1306H94.6353V27.5Z" fill="#FFF200"/>
<path d="M26.7552 36.1052H36.9787L35.7183 43.061H16.2982L22.1336 10.1495H31.2834L26.7552 36.1052Z" fill="black"/>
<path d="M70.1334 18.6925C69.7911 20.6221 68.9819 22.2404 67.7059 23.5475C66.461 24.8235 64.9672 25.6949 63.2243 26.1618C64.8116 26.5352 66.0409 27.2977 66.9123 28.4492C67.8148 29.6007 68.2661 30.9701 68.2661 32.5573C68.2661 33.0553 68.2194 33.5688 68.126 34.0978C67.6592 36.8988 66.321 39.0929 64.1113 40.6801C61.9017 42.2673 59.0384 43.061 55.5217 43.061H39.2294L45.0647 10.1495H60.8435C63.8312 10.1495 66.1498 10.7564 67.7993 11.9702C69.4487 13.1528 70.2734 14.8489 70.2734 17.0586C70.2734 17.5877 70.2268 18.1323 70.1334 18.6925ZM60.47 20.3731C60.5012 20.2175 60.5167 19.9841 60.5167 19.6728C60.5167 18.179 59.5364 17.4321 57.5757 17.4321H52.9541L51.9271 23.2674H56.5487C58.8206 23.2674 60.1277 22.3026 60.47 20.3731ZM59.0229 32.7907C59.054 32.6351 59.0696 32.4173 59.0696 32.1372C59.0696 31.3591 58.805 30.7678 58.276 30.3632C57.778 29.9275 57.0311 29.7097 56.0352 29.7097H50.76L49.733 35.7317H55.0548C57.3267 35.7317 58.6494 34.7514 59.0229 32.7907Z" fill="black"/>
<path d="M114.804 10.1495L108.969 43.061H99.8656L103.087 24.8546L93.6101 43.061H85.9541L82.9664 24.7613L79.7453 43.061H70.5488L76.3842 10.1495H87.448L91.9762 31.4836L103.787 10.1495H114.804Z" fill="black"/>
</svg>
